<?xml version="1.0" encoding="UTF-8" standalone="no"?>
<svg
   width="24"
   height="24"
   viewBox="0 0 24 24"
   fill="none"
   version="1.1"
   id="svg1"
   sodipodi:docname="icon.svg"
   inkscape:version="1.4 (e7c3feb1, 2024-10-09)"
   xmlns:inkscape="http://www.inkscape.org/namespaces/inkscape"
   xmlns:sodipodi="http://sodipodi.sourceforge.net/DTD/sodipodi-0.dtd"
   xmlns="http://www.w3.org/2000/svg"
   xmlns:svg="http://www.w3.org/2000/svg">
  <defs
     id="defs1" />
  <sodipodi:namedview
     id="namedview1"
     pagecolor="#ffffff"
     bordercolor="#000000"
     borderopacity="0.25"
     inkscape:showpageshadow="2"
     inkscape:pageopacity="0.0"
     inkscape:pagecheckerboard="0"
     inkscape:deskcolor="#d1d1d1"
     inkscape:zoom="17.643364"
     inkscape:cx="-3.9958366"
     inkscape:cy="14.906454"
     inkscape:window-width="2504"
     inkscape:window-height="1387"
     inkscape:window-x="0"
     inkscape:window-y="25"
     inkscape:window-maximized="0"
     inkscape:current-layer="svg1" />
  <!-- Simplified "R" inspired by Rampify logo -->
  <g
     transform="matrix(1.2092783,0,0,1.2092783,-119.55247,-159.47149)"
     id="g3">
    <g
       transform="translate(-38.575944,-17.089951)"
       id="g2">
      <path
         style="fill:#d4d4d4"
         d="m 142.9,149.93821 h 7.08174 c 0.82682,0 1.58336,0.12402 2.26963,0.37207 0.68626,0.24805 1.27744,0.59945 1.77353,1.0542 0.49609,0.44648 0.88057,0.97978 1.15342,1.5999 0.27285,0.62012 0.40928,1.30225 0.40928,2.04639 0,0.66145 -0.10335,1.29811 -0.31006,1.90996 -0.20671,0.61185 -0.50023,1.17822 -0.88057,1.69912 -0.38034,0.51263 -0.84749,0.96738 -1.40146,1.36426 -0.54571,0.39687 -1.15756,0.70693 -1.83555,0.93017 l 2.45566,6.92051 h -4.03076 l -2.1332,-6.48643 h -3.1998 l -1.38907,6.48643 h -3.77031 z m 1.93477,8.53281 h 3.27421 c 0.54571,0 1.0418,-0.0744 1.48828,-0.22324 0.45475,-0.1571 0.84336,-0.37207 1.16582,-0.64492 0.32247,-0.28112 0.57051,-0.61185 0.74414,-0.99219 0.17363,-0.38034 0.26045,-0.80202 0.26045,-1.26504 0,-0.76068 -0.23151,-1.34772 -0.69453,-1.76113 -0.46302,-0.41341 -1.11208,-0.62012 -1.94717,-0.62012 h -3.07577 z"
         aria-label="R"
         id="path1-2" />
      <path
         style="fill:#0e639c"
         d="m 155.63127,164.91051 -0.0434,2.92428 h -16.49539 z"
         id="path2" />
    </g>
  </g>
  <!-- Blue underline (Rampify brand color) -->
</svg>
